<svg width="26" height="26" viewBox="0 0 26 26" fill="none" xmlns="http://www.w3.org/2000/svg">
<path d="M13 1.00001C10.6266 1.00001 8.30656 1.70379 6.33317 3.02237C4.35977 4.34095 2.8217 6.2151 1.91345 8.40781C1.0052 10.6005 0.767559 13.0133 1.23058 15.3411C1.69361 17.6689 2.83649 19.8071 4.51473 21.4853C6.19296 23.1635 8.33115 24.3064 10.6589 24.7694C12.9867 25.2325 15.3995 24.9948 17.5922 24.0866C19.7849 23.1783 21.6591 21.6402 22.9777 19.6669C24.2962 17.6935 25 15.3734 25 13C25.0017 11.4237 24.6925 9.86249 24.09 8.40582C23.4875 6.94915 22.6037 5.62561 21.4891 4.51097C20.3744 3.39633 19.0509 2.51248 17.5942 1.91002C16.1375 1.30756 14.5763 0.998323 13 1.00001V1.00001Z" stroke="#64E9EE" stroke-width="0.5" stroke-miterlimit="10" stroke-linecap="round" stroke-linejoin="round"/>
<path d="M20.8748 6.81233C22.1963 8.51136 22.9447 10.5858 23.0124 12.7371C20.7012 12.2889 18.3318 12.2256 16 12.5499C15.7376 11.9499 15.4751 11.3874 15.2124 10.8623C17.3983 9.98764 19.3407 8.5983 20.8748 6.81233V6.81233ZM13 2.98752C15.3811 2.9793 17.6851 3.83162 19.4876 5.38753C18.0916 7.04543 16.2984 8.32263 14.2752 9.09993C13.1944 7.07105 11.9791 5.11669 10.6376 3.24992C11.4114 3.06605 12.2048 2.97792 13 2.98752V2.98752ZM8.68761 3.96233C10.046 5.79386 11.286 7.7103 12.4 9.69993C9.58761 10.4875 6.4376 10.6751 3.25 10.6751C3.59903 9.2218 4.2684 7.86483 5.20919 6.70342C6.14998 5.542 7.33841 4.60548 8.68761 3.96233V3.96233ZM2.9876 12.9999V12.6623H3.0252C6.5876 12.6623 10.15 12.4371 13.3376 11.4999C13.5624 11.9875 13.8252 12.4751 14.05 12.9999C9.85001 14.2375 7.2624 16.9747 5.4624 19.5999C3.86693 17.7713 2.98777 15.4267 2.9876 12.9999V12.9999ZM13 23.0123C10.8041 23.0065 8.67042 22.2822 6.9248 20.9499C8.61241 18.3999 10.9748 15.8875 14.8 14.8375C15.7429 17.2315 16.4219 19.7212 16.8252 22.2623C15.6111 22.7588 14.3117 23.0136 13 23.0123V23.0123ZM18.6624 21.2499C18.2467 18.9225 17.6192 16.6379 16.7876 14.4247C18.826 14.1851 20.8896 14.2737 22.9 14.6871C22.6633 16.0071 22.1669 17.267 21.4394 18.3935C20.712 19.5201 19.7681 20.491 18.6624 21.2499V21.2499Z" stroke="#64E9EE" stroke-width="0.5" stroke-miterlimit="10" stroke-linecap="round" stroke-linejoin="round"/>
</svg>
