<svg width="26" height="26" viewBox="0 0 26 26" fill="none" xmlns="http://www.w3.org/2000/svg">
<path d="M17.8857 1H8.16364C6.26632 1.00053 4.44665 1.75351 3.10372 3.0938C1.76079 4.4341 1.00425 6.25229 1 8.14961V17.8508C1.00435 19.748 1.76095 21.5661 3.10386 22.9063C4.44678 24.2465 6.26639 24.9995 8.16364 25H17.8857C19.7835 25.0003 21.604 24.2477 22.9477 22.9073C24.2913 21.5669 25.0483 19.7483 25.0525 17.8504V8.14921C25.0482 6.2514 24.2911 4.43283 22.9475 3.09253C21.6039 1.75223 19.7835 0.999677 17.8857 1ZM22.6312 17.8504C22.6305 18.4729 22.5073 19.0892 22.2684 19.664C22.0295 20.2389 21.6798 20.7611 21.2391 21.2008C20.7985 21.6405 20.2755 21.9891 19.7001 22.2267C19.1247 22.4643 18.5082 22.5862 17.8857 22.5855H8.16364C7.54113 22.5862 6.92458 22.4643 6.34919 22.2267C5.7738 21.9891 5.25085 21.6405 4.81018 21.2008C4.36951 20.7611 4.01977 20.2389 3.78091 19.664C3.54205 19.0892 3.41876 18.4729 3.41808 17.8504V8.14921C3.41876 7.5267 3.54205 6.91042 3.78091 6.33555C4.01977 5.76069 4.36951 5.2385 4.81018 4.7988C5.25085 4.3591 5.7738 4.01051 6.34919 3.77291C6.92458 3.53532 7.54113 3.41339 8.16364 3.41407H17.8857C18.5082 3.41339 19.1248 3.53533 19.7002 3.77295C20.2756 4.01057 20.7986 4.3592 21.2393 4.79894C21.6799 5.23868 22.0297 5.76092 22.2685 6.33583C22.5073 6.91074 22.6306 7.52706 22.6312 8.14961V17.8504Z" stroke="#64E9EE" stroke-width="0.5" stroke-miterlimit="10" stroke-linecap="round" stroke-linejoin="round"/>
<path d="M13.0263 6.79271C11.7991 6.79509 10.6002 7.16115 9.58103 7.84465C8.56186 8.52814 7.76814 9.49839 7.30018 10.6328C6.83222 11.7672 6.71101 13.0149 6.95187 14.2182C7.19273 15.4214 7.78485 16.5263 8.65342 17.3932C9.52198 18.2601 10.628 18.8501 11.8317 19.0886C13.0355 19.3271 14.2829 19.2035 15.4164 18.7334C16.5499 18.2632 17.5187 17.4676 18.2002 16.4471C18.8817 15.4266 19.2454 14.227 19.2454 12.9999C19.2417 11.3527 18.5849 9.77421 17.4191 8.6106C16.2532 7.44699 14.6734 6.79324 13.0263 6.79271V6.79271ZM13.0263 16.7945C12.2765 16.7929 11.5441 16.569 10.9215 16.1513C10.2989 15.7335 9.81406 15.1406 9.52829 14.4474C9.24252 13.7543 9.16861 12.992 9.3159 12.2568C9.46319 11.5217 9.82507 10.8466 10.3558 10.3171C10.8866 9.7875 11.5624 9.42712 12.2979 9.28146C13.0333 9.1358 13.7955 9.2114 14.488 9.4987C15.1805 9.786 15.7724 10.2721 16.1888 10.8956C16.6051 11.5192 16.8274 12.2521 16.8274 13.0019C16.8262 14.0088 16.4251 14.9741 15.7122 15.6854C14.9994 16.3966 14.0332 16.7956 13.0263 16.7945ZM20.7483 6.83921C20.749 7.13421 20.6621 7.42277 20.4986 7.66836C20.3352 7.91395 20.1026 8.10554 19.8302 8.21887C19.5579 8.3322 19.258 8.36218 18.9686 8.30502C18.6792 8.24786 18.4132 8.10612 18.2044 7.89775C17.9956 7.68938 17.8533 7.42374 17.7955 7.13445C17.7377 6.84517 17.767 6.54524 17.8798 6.27264C17.9925 6.00003 18.1836 5.767 18.4289 5.60304C18.6741 5.43908 18.9625 5.35156 19.2575 5.35156C19.4531 5.3513 19.6468 5.38958 19.8276 5.46421C20.0083 5.53883 20.1727 5.64835 20.3111 5.7865C20.4496 5.92466 20.5594 6.08873 20.6345 6.26936C20.7095 6.44999 20.7482 6.64363 20.7483 6.83921Z" stroke="#64E9EE" stroke-width="0.5" stroke-miterlimit="10" stroke-linecap="round" stroke-linejoin="round"/>
</svg>
