<svg width="52" height="52" viewBox="0 0 52 52" fill="none" xmlns="http://www.w3.org/2000/svg">
<path d="M29.019 23.7619C31.3606 23.7619 33.6063 24.6921 35.262 26.3479C36.9178 28.0036 37.848 30.2493 37.848 32.5909C37.848 34.9325 36.9178 37.1782 35.262 38.834C33.6063 40.4898 31.3606 41.42 29.019 41.42" fill="white"/>
<path d="M37.9227 20.8513H24.6026C22.2606 20.8503 20.015 19.9193 18.3593 18.2629C16.7036 16.6066 15.7736 14.3605 15.7736 12.0186H29.0937C31.4356 12.0195 33.6813 12.9506 35.337 14.6069C36.9926 16.2633 37.9227 18.5094 37.9227 20.8513Z" fill="white"/>
<path d="M24.6026 23.7619H15.7736C15.7736 26.1035 16.7038 28.3492 18.3595 30.005C20.0153 31.6607 22.261 32.5909 24.6026 32.5909H15.7736C15.7736 34.9325 16.7038 37.1782 18.3595 38.834C20.0153 40.4898 22.261 41.42 24.6026 41.42H25.0173V23.7619H24.6026Z" fill="white"/>
<path d="M26 51C39.8071 51 51 39.8071 51 26C51 12.1929 39.8071 1 26 1C12.1929 1 1 12.1929 1 26C1 39.8071 12.1929 51 26 51Z" stroke="#64E9EE" stroke-miterlimit="10"/>
</svg>
