<svg width="24" height="20" viewBox="0 0 24 20" fill="none" xmlns="http://www.w3.org/2000/svg">
<path d="M22.7402 3.3962C22.3298 3.54381 21.9092 3.66326 21.4813 3.75365C21.4403 3.76252 21.3974 3.75813 21.3593 3.74117C21.3211 3.72421 21.2898 3.69561 21.2702 3.65979C21.2505 3.62397 21.2437 3.58291 21.2506 3.54295C21.2576 3.50299 21.2779 3.46635 21.3086 3.43866C21.7992 2.98544 22.2034 2.45261 22.5028 1.86446C22.5201 1.82968 22.5257 1.79054 22.5187 1.75256C22.5118 1.71458 22.4926 1.67965 22.464 1.65268C22.4354 1.62571 22.3988 1.60806 22.3593 1.6022C22.3197 1.59634 22.2793 1.60257 22.2436 1.62001C21.4669 2.02189 20.6195 2.28121 19.7445 2.38477C18.8275 1.50685 17.5907 1.00983 16.2986 1C15.6763 0.999468 15.0599 1.11729 14.4849 1.34673C13.9098 1.57618 13.3873 1.91273 12.9472 2.33714C12.5072 2.76155 12.1582 3.26549 11.9203 3.82011C11.6824 4.37473 11.5602 4.96915 11.5608 5.56935C11.5592 5.90679 11.5952 6.24341 11.6684 6.5734C8.20403 6.47222 4.16001 4.8574 1.79723 2.05021C1.77753 2.0264 1.75203 2.00766 1.72299 1.99567C1.69396 1.98368 1.6623 1.9788 1.63084 1.98146C1.59938 1.98413 1.56909 1.99427 1.54267 2.01097C1.51625 2.02766 1.49453 2.05041 1.47944 2.07716C1.02412 2.98187 0.888278 4.00542 1.09264 4.99156C1.297 5.9777 1.83034 6.87226 2.61124 7.53867C2.64263 7.56331 2.66511 7.59689 2.67547 7.63462C2.68583 7.67234 2.68352 7.71226 2.66889 7.74864C2.65426 7.78502 2.62806 7.816 2.59404 7.83712C2.56002 7.85825 2.51993 7.86843 2.47953 7.86622C2.06688 7.8485 1.6626 7.74788 1.29259 7.5708C1.26251 7.5561 1.22893 7.54933 1.19526 7.55117C1.16159 7.553 1.12902 7.56338 1.10085 7.58126C1.07268 7.59914 1.0499 7.62387 1.03483 7.65297C1.01975 7.68206 1.01291 7.71448 1.015 7.74694C1.05348 8.61952 1.36635 9.46014 1.91203 10.1571C2.45772 10.8541 3.21039 11.3745 4.07003 11.649C4.10995 11.6629 4.14396 11.6892 4.16671 11.7237C4.18946 11.7583 4.19967 11.7991 4.19572 11.8399C4.19178 11.8806 4.17391 11.919 4.14492 11.9488C4.11593 11.9787 4.07747 11.9985 4.03557 12.005C3.67503 12.0445 3.31102 12.0445 2.95048 12.005C2.91936 12.0022 2.88799 12.0067 2.85906 12.0181C2.83012 12.0295 2.80448 12.0475 2.78432 12.0705C2.76416 12.0935 2.75007 12.1209 2.74327 12.1504C2.73647 12.1798 2.73715 12.2104 2.74525 12.2395C3.07032 13.4514 4.6949 14.8705 6.51245 15.0651C6.54888 15.0697 6.58317 15.0843 6.61123 15.1072C6.63929 15.13 6.65995 15.1602 6.67072 15.1941C6.6815 15.2279 6.68195 15.2641 6.67201 15.2982C6.66207 15.3323 6.64217 15.3629 6.61468 15.3864C5.09902 16.5572 3.19435 17.1577 1.2543 17.0766C1.21083 17.0747 1.168 17.0872 1.13286 17.1119C1.09773 17.1367 1.07239 17.1723 1.06102 17.2128C1.04965 17.2533 1.05292 17.2963 1.07031 17.3348C1.0877 17.3733 1.11816 17.4049 1.15667 17.4244C3.20364 18.4598 5.48065 19.0004 7.79205 18.9997C9.58831 19.0112 11.3681 18.6692 13.0227 17.9946C14.6772 17.3201 16.1717 16.3272 17.4148 15.0766C18.6579 13.826 19.6235 12.3441 20.2525 10.7213C20.8815 9.09857 21.1608 7.36915 21.0732 5.63878V5.46559C21.8004 4.97409 22.4386 4.37037 22.9623 3.67869C22.987 3.64661 23.0002 3.60767 23 3.56772C22.9998 3.52776 22.9861 3.48896 22.9611 3.45712C22.9361 3.42529 22.901 3.40214 22.8612 3.39115C22.8214 3.38017 22.7789 3.38194 22.7402 3.3962V3.3962Z" stroke="#64E9EE" stroke-width="0.5" stroke-miterlimit="10" stroke-linecap="round" stroke-linejoin="round"/>
</svg>
